<svg id="Capa_1" enable-background="new 0 0 512.19 512.19" height="512" viewBox="0 0 512.19 512.19" width="512" xmlns="http://www.w3.org/2000/svg"><g><g><path d="m336.095 497.19h-160c21.83 0 39.52-17.69 39.52-39.51v-40.32h80.96v40.32c0 21.82 17.69 39.51 39.52 39.51z" fill="#7a8a96"/><path d="m336.095 497.19h-80v-79.83h40.48v40.32c0 21.82 17.69 39.51 39.52 39.51z" fill="#4d6780"/></g><g><path d="m512.095 40.37v316.01l-256 30-256-30v-316.01z" fill="#e7f2ff"/><path d="m512.095 40.37v316.01l-256 30v-346.01z" fill="#d0e8ff"/></g><path d="m141.095 482.19h230v30h-230z" fill="#4d6780"/><path d="m.095 356.38h512v75.98h-512z" fill="#4d6780"/><path d="m461.495 0v311.4h-205.4v-44.05l-41.01-40.99 41.01-40.98v-185.38z" fill="#ff7a4d"/><path d="m358.905 0h102.59v311.4h-102.59z" fill="#f43"/><g fill="#fff"><path d="m316.075 80.73h85.65v30h-85.65z"/><path d="m316.075 140.7h85.65v30h-85.65z"/><path d="m316.075 200.68h85.65v30h-85.65z"/></g><g><g fill="#e7f2ff"><path d="m358.905 80.73h42.82v30h-42.82z"/><path d="m358.905 140.7h42.82v30h-42.82z"/><path d="m358.905 200.68h42.82v30h-42.82z"/></g></g><g><path d="m187.856 263.591v48h-120v-48c0-33.08 26.92-60 60-60s60 26.92 60 60z" fill="#ff7a4d"/><circle cx="127.856" cy="170.345" fill="#ffc5ae" r="33.247"/></g><g fill="#3d4b66"><path d="m256.095 482.19h115v30h-115z"/><path d="m256.095 356.38h256v75.98h-256z"/></g></g></svg>